<svg xmlns="http://www.w3.org/2000/svg" width="4" height="7"><path d="M3.979,3.703 C3.987,3.785 3.966,3.869 3.903,3.934 L1.038,6.901 C0.921,7.023 0.724,7.029 0.598,6.916 L0.143,6.506 C0.017,6.393 0.011,6.203 0.128,6.082 L2.190,3.946 C2.276,3.829 2.356,3.691 2.356,3.548 C2.356,3.214 1.947,2.885 1.947,2.885 L1.963,2.877 L0.080,0.905 C-0.036,0.784 -0.029,0.592 0.095,0.479 L0.547,0.068 C0.671,-0.045 0.867,-0.039 0.983,0.083 L3.823,3.057 C3.867,3.102 3.876,3.161 3.885,3.218 C3.945,3.267 3.988,3.334 3.988,3.416 L3.988,3.681 C3.988,3.690 3.979,3.694 3.979,3.703 Z" fill="rgb(148, 156, 176)"/></svg>